<svg xmlns="http://www.w3.org/2000/svg" width="60" height="59.999" viewBox="0 0 60 59.999"><path d="M33.674,31.108a.879.879,0,0,0,1.134-.508l.377-.989h2.607l.372.986a.879.879,0,1,0,1.644-.621l-2.356-6.243a1.02,1.02,0,0,0-.955-.658h0a1.019,1.019,0,0,0-.945.636c-.008.02-2.378,6.242-2.386,6.263a.879.879,0,0,0,.508,1.134Zm2.82-4.936.634,1.681H35.854ZM16,42.346a18.527,18.527,0,0,1-1.2-6.053c0-1.056.175-2.428-.828-2.87-.957-.422-1.685.458-2.388,1.31a5.482,5.482,0,0,1-2.6,2.108c-1.121.244-2.429-.513-3.581-1.492a5.917,5.917,0,0,0,3.47-2.107,5.281,5.281,0,0,0,.93-1.956,1.23,1.23,0,0,0-1.618-1.451,5.123,5.123,0,0,1-3.619.011,4.736,4.736,0,0,1-2.677-2.833,5.406,5.406,0,0,1,1.955-.876,21.767,21.767,0,0,1,2.3-.227c.972.017,2.484.144,3.206-.86a2.022,2.022,0,0,0-.1-2.14A2.633,2.633,0,0,1,8.9,21.223,2.141,2.141,0,0,1,9.777,19.8c.052.044.133.134.191.2a2.337,2.337,0,0,0,1.59.831c1.443,0,2.557-1.722,4.67-4.991.334-.517.548-.878.72-1.169a6.166,6.166,0,0,1,.718-1.046,9.091,9.091,0,0,1,1.384-1.306,2.069,2.069,0,0,0,1.042-1.606c.015-1.183-1.119-1.824-2.118-2.39-.406-.23-1.356-.767-1.357-1.024a1.589,1.589,0,0,1,.274-.309,2.124,2.124,0,0,0,.8-1.593c-.019-1.327-1.371-2.005-2.358-2.5-.2-.1-.469-.236-.669-.354.826-.557,3.321-1.239,4.74-.339a3.281,3.281,0,0,1,.924,1,2.968,2.968,0,0,0,1.948,1.484,2.66,2.66,0,0,0,1.765-.315,3.563,3.563,0,0,1,1.23-.379,4.539,4.539,0,0,1,2.553.418c-.145.133-.366.3-.53.425a3.662,3.662,0,0,0-1.851,2.726,2.853,2.853,0,0,0,.531,1.616,2.148,2.148,0,0,1,.176.317c-.056.146-.544.321-.808.416-.568.2-1.345.483-1.458,1.3-.157,1.153,1.092,1.757,2.538,2.456a13.744,13.744,0,0,1,1.838,1c.456.322.579.544.58.624a1.43,1.43,0,0,1-.307.5,2.108,2.108,0,0,0-.57,1.938,2.914,2.914,0,0,0,2.06,1.7c1.221.4,2.4.789,3.454,1.122a.879.879,0,1,0,.531-1.676c-1.042-.33-2.22-.716-3.437-1.116-.753-.247-.89-.443-.915-.5a2.266,2.266,0,0,1,.267-.393,2.526,2.526,0,0,0,.673-1.6c-.021-1.545-1.822-2.415-3.411-3.183-.34-.164-.782-.378-1.122-.571a2.543,2.543,0,0,0,1.762-1.5,2.018,2.018,0,0,0-.361-1.768,1.219,1.219,0,0,1-.267-.658c.008-.485.592-.928,1.156-1.357.674-.512,1.513-1.148,1.308-2.139-.148-.715-.8-1.27-1.9-1.6a6.864,6.864,0,0,0-2.7-.245,5.307,5.307,0,0,0-1.771.532c-.369.172-.484.22-.7.18-.316-.058-.46-.233-.823-.757A4.884,4.884,0,0,0,20.345.718,5.359,5.359,0,0,0,17.062.024a7.774,7.774,0,0,0-2.927.8c-1.147.6-1.409,1.258-1.427,1.7-.04.994.957,1.494,1.837,1.936.379.19,1.385.7,1.39.959a1.6,1.6,0,0,1-.273.307,2.138,2.138,0,0,0-.8,1.575c0,1.275,1.249,1.979,2.249,2.545a5.548,5.548,0,0,1,1.193.8c-.084.078-.225.191-.345.286a10.764,10.764,0,0,0-1.625,1.539,7.883,7.883,0,0,0-.9,1.293c-.164.277-.369.622-.684,1.11a40.865,40.865,0,0,1-2.357,3.43c-.618.746-.856.753-.854.756-.046-.006-.188-.162-.273-.255a1.915,1.915,0,0,0-1.518-.778c-.975.033-2.207,1.039-2.569,2.838a4.311,4.311,0,0,0,.483,2.766c.06.13.135.294.179.413a4.768,4.768,0,0,1-1.445.1,2.871,2.871,0,0,0-.643.027,12.565,12.565,0,0,0-2.276.234A7.418,7.418,0,0,0,.321,26a.879.879,0,0,0-.3.852,6.566,6.566,0,0,0,3.9,4.629,6.673,6.673,0,0,0,3.813.3,3.437,3.437,0,0,1-.258.391c-1.323,1.735-3.894,1.618-4,1.612a.879.879,0,0,0-.688,1.479c2.474,2.639,4.624,3.716,6.573,3.291,1.679-.366,2.834-1.8,3.685-2.836,0,.19-.006.375-.006.574a20.248,20.248,0,0,0,1.283,6.585,60.754,60.754,0,0,0,2.468,5.638.879.879,0,1,0,1.593-.743c-1.248-2.673-2.088-4.5-2.387-5.429Zm7.058-12.09a.877.877,0,0,0,.876.816h0c.053,0,1.294,0,1.791-.014,1.909-.033,3.294-1.689,3.294-3.938,0-2.363-1.35-3.951-3.36-3.951h-1.74a.879.879,0,0,0-.879.881v0h0c0,.162,0,6.052.016,6.2Zm2.6-5.329c1.487,0,1.6,1.679,1.6,2.194,0,1.487-.787,2.167-1.567,2.18-.206,0-.554.007-.888.009,0-.719-.005-1.694-.005-2.2,0-.42,0-1.438,0-2.187ZM12.4,23.861v6.332a.879.879,0,0,0,1.758,0V23.861a.879.879,0,0,0-1.758,0Zm17.78,0v6.332a.879.879,0,1,0,1.758,0V23.861a.879.879,0,1,0-1.758,0Zm29.342-7.846a4.749,4.749,0,0,0-3.492-2.792c-1.858-.161-3.307,1.419-4.365,2.572A9.668,9.668,0,0,0,50.2,17.933c-.359.665-.522.943-.95,1.119a2.836,2.836,0,0,1-2.118-.138,4.193,4.193,0,0,1-1.8-1.615c-.45-.616-.959-1.315-1.865-1.233-1.074.1-1.365,1.136-1.6,1.97a3.932,3.932,0,0,1-1.042,2.052c-.239.2-.918.353-2.8-.067a.879.879,0,0,0-.383,1.715c2.751.615,3.723.191,4.311-.3a5.466,5.466,0,0,0,1.6-2.924c.04-.144.088-.315.135-.463.073.094.149.2.215.289a5.885,5.885,0,0,0,2.556,2.206,4.559,4.559,0,0,0,3.453.137,3.592,3.592,0,0,0,1.828-1.91,8.042,8.042,0,0,1,1.216-1.785c.856-.933,1.923-2.095,2.917-2.009a3.023,3.023,0,0,1,2.063,1.808,1.889,1.889,0,0,1,.26,1.332,2.325,2.325,0,0,1-.543.089,3.154,3.154,0,0,0-2.18.9,2.909,2.909,0,0,0-.689,2.139,5.1,5.1,0,0,1-.39,2.072,3.068,3.068,0,0,1-.509.865,3.451,3.451,0,0,0-.677,1.261,6.691,6.691,0,0,0-.153,3.147,4.361,4.361,0,0,1-1.346-.617c-.326-.211-1.089-.7-1.181-1.293-.089-.57.486-1.25.906-1.746.447-.528,1.058-1.251.49-1.977-.6-.761-1.634-.469-3.909.169-2.487.7-3.235,1.158-3.747,1.763a3.907,3.907,0,0,0-1,2.321,4.6,4.6,0,0,0,1.372,3.157c-.126-.006-.255-.01-.383-.006-2.225.06-3.375,1.881-4.707,3.99a20,20,0,0,1-4.265,5.212,6.979,6.979,0,0,1-2.622,1.4A4.455,4.455,0,0,0,30.076,42.7,6.677,6.677,0,0,0,28.91,47a18.41,18.41,0,0,1-.458,4.025,20.192,20.192,0,0,1-1.929,5.082c-.872,1.539-1.611,2.108-2.007,2.137a10.527,10.527,0,0,1-2.161-2.83A43.156,43.156,0,0,1,20.2,51.6a.879.879,0,0,0-1.57.79,44.821,44.821,0,0,0,2.238,3.967C22.961,59.66,23.713,60,24.49,60c3.014,0,5.114-6.173,5.674-8.58a20.18,20.18,0,0,0,.5-4.375,5.023,5.023,0,0,1,.824-3.31,2.742,2.742,0,0,1,1.716-1.107A8.69,8.69,0,0,0,36.4,40.925a21.754,21.754,0,0,0,4.64-5.635c1.3-2.061,2.038-3.138,3.268-3.171.163,0,.361.01.552.024.632.047,1.5.111,1.922-.618.474-.813-.165-1.557-.677-2.154a3.275,3.275,0,0,1-1.077-2.077,2.212,2.212,0,0,1,.587-1.27c.154-.181.439-.519,2.879-1.2.315-.088.671-.188,1.013-.279a3.265,3.265,0,0,0-.712,2.412,3.916,3.916,0,0,0,1.964,2.5c.849.549,2.429,1.357,3.472.607a1.915,1.915,0,0,0,.54-1.983,4.646,4.646,0,0,1,.116-2.1,1.763,1.763,0,0,1,.378-.7A4.76,4.76,0,0,0,56.019,24a6.844,6.844,0,0,0,.525-2.706c.015-.624.037-.79.216-.981.245-.262.549-.3,1.066-.354a2.22,2.22,0,0,0,1.84-.87,3.151,3.151,0,0,0-.146-3.069ZM16.3,23.033a.879.879,0,0,0-.617.839v6.321a.879.879,0,1,0,1.758,0v-3.5l2.672,3.869a.961.961,0,0,0,1.086.4.994.994,0,0,0,.679-.987l-.059-6.119a.879.879,0,0,0-.879-.87h-.009a.879.879,0,0,0-.87.887l.035,3.574-2.811-4.07a.878.878,0,0,0-.985-.34Z" transform="translate(0 -0.004)"/></svg>