<svg xmlns="http://www.w3.org/2000/svg" width="46.75" height="46.833" viewBox="0 0 46.75 46.833"><path d="M41.606,24.1V1.429A1.428,1.428,0,0,0,40.177,0H1.429A1.428,1.428,0,0,0,0,1.429V36.006a1.429,1.429,0,0,0,1.429,1.429H21.982A12.589,12.589,0,1,0,41.606,24.1ZM17.332,2.858h6.941v9.884l-2.7-1.723a1.43,1.43,0,0,0-1.536,0l-2.7,1.723Zm4.243,31.719H2.858V2.858H14.475v12.49a1.43,1.43,0,0,0,2.2,1.2L20.8,13.918l4.13,2.634a1.43,1.43,0,0,0,2.2-1.2V2.858H38.748V22.519A12.591,12.591,0,0,0,21.575,34.577Zm12.586,9.4a9.732,9.732,0,1,1,9.731-9.731A9.744,9.744,0,0,1,34.161,43.975Zm0,0"/><path d="M299.362,289.109l-2.931-.737-1.574-2.531a2.242,2.242,0,0,0-3.809,0l-1.573,2.531-2.931.737a2.241,2.241,0,0,0-1.151,3.639l1.932,2.237c-.12,1.558-.069.891-.232,3.017a2.244,2.244,0,0,0,2.232,2.416c.592,0,.651-.083,3.627-1.344l2.747,1.164A2.242,2.242,0,0,0,298.811,298c-.163-2.124-.111-1.459-.232-3.016l1.932-2.237A2.242,2.242,0,0,0,299.362,289.109Zm-3.178,4.283a2.261,2.261,0,0,0-.479,1.428c0,.086-.009-.056.18,2.393l-2.057-.871a2.26,2.26,0,0,0-1.75,0l-2.057.871c.18-2.33.179-2.3.179-2.393a2.254,2.254,0,0,0-.479-1.428c-.059-.075.007,0-1.512-1.755l2.2-.555a2.227,2.227,0,0,0,1.357-.992l1.182-1.9,1.181,1.9a2.233,2.233,0,0,0,1.358.992l2.2.555C296.993,292.451,296.243,293.316,296.184,293.391Zm0,0" transform="translate(-258.792 -258.732)"/></svg>