<svg xmlns="http://www.w3.org/2000/svg" width="37.593" height="41.843" viewBox="0 0 37.593 41.843"><g transform="translate(-26)"><g transform="translate(52.969 32.363)"><g transform="translate(0)"><path d="M356.817,396a.817.817,0,1,0,.817.817A.818.818,0,0,0,356.817,396Z" transform="translate(-356 -396)"/></g></g><g transform="translate(26)"><g transform="translate(0)"><path d="M55.8,29.72l-3.884-1.295L50.52,25.637A8.951,8.951,0,0,0,52.942,20.9l.174-1.042H54.6a2.455,2.455,0,0,0,2.452-2.452V12.259a12.259,12.259,0,1,0-24.517,0v5.149a2.456,2.456,0,0,0,1.634,2.311v.958a2.455,2.455,0,0,0,2.452,2.452h.718a8.866,8.866,0,0,0,1.371,2.123c.116.133.236.262.36.387l-1.394,2.787L33.795,29.72A12.046,12.046,0,0,0,26,41.026a.817.817,0,0,0,.817.817H62.776a.817.817,0,0,0,.817-.817A12.046,12.046,0,0,0,55.8,29.72Zm-.378-12.313a.818.818,0,0,1-.817.817H53.356c.208-1.609.346-3.322.4-5.008,0-.048,0-.094,0-.141h1.658Zm-20.431.817a.818.818,0,0,1-.817-.817V13.076h1.659q0,.128.009.257v.009h0c.057,1.64.194,3.308.4,4.882H34.99Zm1.634,3.269a.818.818,0,0,1-.817-.817v-.817h.67l.174,1.043c.033.2.074.4.121.592Zm-.816-10.052H34.2a10.625,10.625,0,0,1,21.186,0h-1.6a8.277,8.277,0,0,0-8.257-8.172H44.065A8.277,8.277,0,0,0,35.808,11.441ZM44.065,4.9h1.463a6.645,6.645,0,0,1,6.624,6.653c0,.257,0,.481-.006.685,0,0,0,.005,0,.008L51.123,12.1A13.132,13.132,0,0,1,43.74,8.412a.817.817,0,0,0-.578-.239,7.394,7.394,0,0,0-5.685,2.689A6.643,6.643,0,0,1,44.065,4.9Zm-5.6,16.59a46.712,46.712,0,0,1-.981-7.932l1.1-1.467a5.752,5.752,0,0,1,4.254-2.279,14.782,14.782,0,0,0,8.053,3.905l1.2.172c-.08,1.707-.245,3.42-.48,4.995v0c-.075.506-.134.832-.285,1.743A6.942,6.942,0,0,1,46.4,26.215a6.43,6.43,0,0,1-7.218-3.087h1.666a2.456,2.456,0,0,0,2.311,1.634H44.8a2.452,2.452,0,1,0,0-4.9H43.162a2.453,2.453,0,0,0-2.313,1.634Zm4.627,6.376a8.2,8.2,0,0,0,3.04.068l-1.444,1.527Zm.472,2.784-2.592,2.741a31.138,31.138,0,0,1-1.83-4.243l.973-1.947Zm5.772-3.725,1.112,2.224A31.129,31.129,0,0,1,48.62,33.4l-2.774-2.774Zm-6.993-4.617a.817.817,0,0,1,.817-.817H44.8a.817.817,0,1,1,0,1.634H43.162A.818.818,0,0,1,42.345,22.311Zm-14.678,17.9a10.328,10.328,0,0,1,6.644-8.938l3.44-1.146a32.761,32.761,0,0,0,2.326,5.046l0,.008h0a32.769,32.769,0,0,0,2.237,3.416l1.005,1.614ZM44.8,39.48,43.688,37.7q-.019-.03-.04-.058a31.16,31.16,0,0,1-1.841-2.751l2.915-3.082,3.071,3.071a31.126,31.126,0,0,1-1.848,2.762C45.9,37.7,45.962,37.612,44.8,39.48Zm1.472.728,1.005-1.614a32.756,32.756,0,0,0,2.253-3.443l.012-.022v0a32.734,32.734,0,0,0,2.3-5l3.44,1.146a10.328,10.328,0,0,1,6.644,8.938Z" transform="translate(-26)"/></g></g><g transform="translate(55.841 33.923)"><path d="M394.768,418.067a8.171,8.171,0,0,0-2.314-2.809.817.817,0,0,0-1,1.3,6.527,6.527,0,0,1,1.848,2.244.817.817,0,0,0,1.462-.73Z" transform="translate(-391.139 -415.088)"/></g></g></svg>